<svg version="1" xmlns="http://www.w3.org/2000/svg" width="2705.333" height="2705.333" viewBox="0 0 2029.000000 2029.000000"><path d="M243 409.2c0 1.3.7 8 1.4 14.9.8 7 1.2 13.8.9 15-.2 1.3 12 108.6 27.1 238.4 15.2 129.8 29.2 249.9 31.1 267 9.3 81.4 11.8 103.6 15.6 136.5 5.7 50.5 5.7 50.5 12.2 55.4 2.8 2.1 2.9 2.1 107.9 2.4 104.6.2 105.1.2 109.4-1.8 7.6-3.7 7.5-3.6 17.5-74.3 10.9-77.3 15.8-112.8 24.4-175.7 3.7-26.7 7.5-52.6 8.5-57.6 3.5-17.9 8-23.1 12-14 2.9 6.4 4.5 15.2 9 48.8 13.5 100.2 24.9 174 37.5 242.7 4.1 22.6 5.8 26.5 12.5 29.8l4.4 2.3h103.7c74.7 0 104.6-.3 107-1.1 4.4-1.5 8.6-5.4 9.9-9.3 1.1-3.5 1.6-7.7 18.5-157.1 2-17.1 16.6-143.5 32.5-280.9 16-137.5 28.8-250.7 28.5-251.6-.3-.9.1-8.2 1-16.1.8-7.9 1.5-14.7 1.5-15.2 0-.4-40.5-.7-90-.7h-89.9l-.6 3.2c-3.7 22.1-12.4 86.3-18.9 141.3-10.1 84.8-17.2 156.4-25.1 253.5-1.8 23.4-3.9 44-4.5 45.7-.7 1.8-1.8 3.3-2.6 3.3-3.8 0-4.4-5.3-13-117.4-11.2-147.1-21.7-272.7-26.1-313.9l-1.6-15.7-96.1.2-96 .3-2.3 16c-15 104.8-34 271.8-42.9 377-1.5 17.7-3.2 33.5-4 35.2-1.6 4-3.7 4.2-5.4.5-1.5-3.3-.8 5.1-18.5-220.2-8-102-14.9-190-15.5-195.5-.5-5.5-1-10.8-1-11.8 0-1.6-5-1.7-90-1.7h-90v2.2zM1057 407.5c0 .3-.7 4.9-1.5 10.3-.8 5.3-21.2 159.1-45.4 341.7-24.3 182.6-44.9 338.2-45.9 345.7-1.5 11.3-1.6 13.8-.5 13.8.9 0 1.3 1.5 1.3 5.2 0 6.6 2.7 11.4 7.5 13.4 2.9 1.2 16.5 1.4 86.7 1.4 79 0 83.5-.1 87.4-1.9 4.4-2 7.8-6.6 8.7-11.6.7-3.4.5-2.1 4.7-53 4.3-52.9 4.7-54.6 12-59 3.2-1.8 5.5-2 24.1-2.3 23-.4 27.7.3 31.9 4.8 4.6 4.9 4.8 6.2 8.5 57.5.8 11.5 1.8 24.4 2.1 28.5 1.9 25.8 2.9 30.1 8.7 34.4 2.8 2.1 3.2 2.1 86.6 2.4l83.7.2 4.5-2.3c5.2-2.8 7.2-6.9 6.3-13.5-.4-3.4-.2-4.2 1-4.2.9 0 1.6-.5 1.6-1 0-1.4-100.4-674-103.7-694.8l-2.6-16.2h-133.8c-73.7 0-133.9.2-133.9.5zm143.3 233.7c3 6.1 4.5 16.8 8.7 62.3 6.1 65.9 13.9 145.1 15.6 157.2l.6 4.3h-61.3l.6-4.8c.3-2.6 1.7-16 3.1-29.7 5.3-53.4 18.2-157.3 21.4-173 2.9-14 5.8-21 8.4-20.2.6.2 1.9 1.9 2.9 3.9zM1381.2 482.2c.3 73.8.3 75.4 2.4 79.3 1.3 2.6 3.4 4.7 6 6 3.7 1.9 6.4 2 47.4 2.5 39.1.4 43.8.7 46.7 2.3 6.8 3.7 6.3-20.3 6.3 275.9.1 150.7.5 271.3 1 275.2.5 4 1.6 8 2.8 9.5 4.3 5.8.7 5.6 88.2 5.9 55.6.2 81.7 0 84.2-.8 5.5-1.6 8.5-6.2 9.8-14.6.6-4.5 1-101.4 1-275.4 0-266.6 0-268.5 2-271.8 1.1-1.8 3.2-3.8 4.8-4.5 1.9-.8 15.4-1.3 46.7-1.7 42-.5 44.2-.6 47.5-2.5 1.9-1.2 4.3-3.6 5.5-5.5 2-3.4 2-5.1 2.3-79.3l.3-75.7h-405.2l.3 75.2zM376.2 1200.1c-40.7 5.3-72.6 29.3-85.7 64.7-7.4 19.6-8.3 35.9-9.2 153.2-.4 65.1-.3 94.5.6 108 3.3 50.9 9.8 70.7 29.6 90.5 19.7 19.7 45.8 29.3 82 30 16.8.4 24.5-.3 38.5-3.6 29-6.8 56.7-27.9 68.9-52.5 10-20.4 14-55.2 12.5-111.2l-.7-27.2h-97.4l-.7 21.2c-.4 11.7-.9 31.4-1.1 43.8-.6 24.4-1.4 30.6-5 34.4-4.6 5-13.5 5.7-20.2 1.6-2.5-1.5-3.6-3.2-5-7.7-1.6-5.4-1.8-13.8-1.8-120.3 0-126.7-.3-121.6 6.4-129.1 3.2-3.6 4.3-4.2 8.6-4.6 3.8-.3 5.8.1 8.2 1.6 8.5 5.4 9.3 10.1 9.3 60 0 39.3.1 40.6 2.1 44.9 1.7 3.4 3.2 4.9 6.5 6.4 4.1 1.7 6.8 1.9 42.8 1.6 37.3-.3 38.5-.4 41.3-2.4 1.5-1.2 3.7-3.6 4.8-5.5 1.9-3.2 2-5 1.8-34.9-.6-74.2-5-100.3-20.8-122.6-15.1-21.1-43.5-36.5-75-40.3-10.2-1.2-31.9-1.3-41.3 0zM634.5 1200.4c-11.5 1.9-22.7 5.2-31.2 9.1-30.4 14.1-50.6 41.7-55.7 76.5-2.6 17.9-3.8 61-4 147.5-.1 85.7.1 100.7 1.5 116 2.4 24.7 10 44 24 60.7 15.2 18.1 32.3 27.9 59.4 33.9 10.6 2.4 35.8 3.3 47.5 1.8 47.5-6.1 80.4-34.9 90.5-79.3 3.6-15.8 4-28.9 3.9-128.6 0-134.7-1.2-153.6-10.3-176.5-12.6-31.3-37.1-51.3-73.1-59.6-11.1-2.6-40.8-3.4-52.5-1.5zm30 94.8c6.7 6.3 6.5 2.5 6.5 124.3 0 59.9-.5 113.2-1 118.3-1.1 11.4-3 15.1-8.8 17.2-3.7 1.3-4.7 1.3-8.4 0-6.7-2.4-8.2-5.4-8.8-17.8-.3-5.9-.6-60.2-.6-120.7.1-121.2-.2-114.6 6.4-121.2 4.6-4.6 9.8-4.6 14.7-.1zM1393.6 1200.5c-37.7 6.2-63.4 24.5-73.7 52.5-5.9 16.3-7.9 34.5-8 72.6-.1 37.7 2.1 51.6 11.4 71.8 9.2 19.8 18.7 29.2 61.2 60.4l16 11.7-42.6.3-42.7.2-.7 31.4c-1.1 48.4 1.3 71.2 9.8 91.1 11.1 26.1 39.1 45.7 74.7 52.2 13.1 2.3 41.9 2.3 55-.1 17-3.1 35.6-10.5 47.4-19 7.9-5.6 18.4-16.8 22.4-23.7 4.1-7.2 7.8-18.5 9.8-30 3-17.1 2.7-69-.6-96.4-2.4-19.6-7.8-38.6-14.1-49-10.9-18.2-34.1-38.3-78.8-68.4-20.9-14.1-28.1-20.6-31.7-28.4-7.7-16.9-.9-38.4 12.1-38.1 5.4.1 8.9 2.6 11.7 8.2 2 4.2 2.3 6.7 2.8 22.7.7 20.1 1.6 23.6 7.3 27 3 1.9 5.5 2 37.7 2.3 34.2.3 34.5.3 39-2 8.1-4.1 8.2-5 7.6-37.3-.9-49.8-5.3-68.1-20.1-83.1-13.4-13.6-31.7-22.7-55.5-27.6-12.9-2.6-44.7-3.4-57.4-1.3zm22.7 282.2c14.2 12 17.7 16.7 20.9 28.2 2.5 8.9 3.5 25.7 1.8 31.4-2.6 9.4-10.4 14.8-18.9 13.2-8.5-1.6-11.6-5.6-12.5-16-.9-9.7-1.8-64.5-1.2-64.5.4 0 4.8 3.5 9.9 7.7zM804.9 1224.2c-.1 9.5-.3 20.4-.4 24.3-.6 17.3-.6 289 0 297 1.6 22.7 4.2 33.6 11.4 47.7 13.5 26.6 40 44.4 76.1 51.4 12.8 2.4 40.7 2.5 53.7.1 12.3-2.2 26.9-7.6 36.7-13.4 20.6-12.3 38.2-37.5 43.1-61.8 3.2-15.8 3.4-30.3 3-166-.3-74.8-.5-149.6-.5-166.3V1207h-97.8l-.4 21.2c-.3 11.7-.6 76.2-.7 143.3-.2 132.1-.7 171.3-2.2 176.1-1.6 5.2-5.2 7.7-10.8 7.8-5.9.1-9.6-2.7-11-8.3-.6-2.1-1.2-70.7-1.5-159.1-.4-85.5-.9-161.2-1.2-168.3l-.6-12.7H805l-.1 17.2zM1064.9 1259.4c-.1 28.9-.3 55.6-.4 59.3-.1 3.8-.4 74.4-.5 157-.2 145.1-.2 150.2 1.6 153.9 1.1 2.1 3.5 4.8 5.4 5.9 3.4 1.9 5.1 2 43.6 2h40.1l3.5-2.7c6.5-5 6.3-2.2 6-88.2-.3-70.8-.2-78.3 1.3-82.2.9-2.4 2.6-5.1 3.8-5.9 5-3.5 13.3-.3 16.9 6.6 3.7 7.3 4 13.3 4.2 88.4.1 65.8.3 73.3 1.7 76 2.2 3.9 4.6 6 8.8 7.4 4.7 1.5 68.5 1.5 73.2 0 4.6-1.6 7.6-4.5 9.1-8.8 2.4-6.8.9-145.4-1.8-172.1-1.3-13-7.2-25.7-16.7-35.7l-4.9-5.2 3.3-2.8c16-13.5 20-29 19.9-78.3 0-56.2-5.1-79.4-21.7-99.5-10.5-12.7-23.4-20.2-40.1-23-18.5-3.1-31.3-3.7-92.9-4.2l-63.3-.5-.1 52.6zm115.8 43.6c8.1 4.9 10.7 14 10.1 35.5-.5 18.1-2.1 23-8.4 26-4 1.9-16.4 3.7-17.6 2.6-.4-.3-.8-13.2-.9-28.6-.2-24.5 0-28.4 1.4-31.2 3.3-6.3 9.3-8 15.4-4.3zM1564.8 1257.7c0 28-.2 54.6-.3 59.3-.1 4.7-.4 76-.6 158.5-.4 148.4-.4 150 1.6 154 1.1 2.2 3.6 4.8 5.5 6 3.4 2 5.3 2 76.5 2.3 52.7.2 74.1 0 77-.8 5.8-1.7 9.2-5.4 10.5-11.4 1.1-4.9.9-37-.6-76.9l-.5-14.7h-70l.3-28.8c.3-26.8.4-28.9 2.3-32.2 3.9-6.6 6.3-7.2 27.4-7.5 21.1-.3 24.8-1.3 28.6-7.7 1.8-3 2-5.2 2.1-28.3 0-13.8-.1-33.7-.3-44.3l-.5-19.2H1664v-22.3c0-33.4-.5-32.9 32-33.7 24.7-.6 26.8-1.2 30.1-8.3 1.7-3.9 1.9-7.2 1.9-49.5V1207h-163l-.2 50.7z"/></svg>